<svg xmlns="http://www.w3.org/2000/svg" version="1.1" viewBox="-5.0 -10.0 110.0 135.0">
 <path d="m38.23 73.055h31.141c0.94531 0.003906 1.8555-0.37109 2.5234-1.043 0.66797-0.66797 1.043-1.5742 1.043-2.5195v-30.875c0-0.94531-0.37891-1.8516-1.0469-2.5195-0.66797-0.67188-1.5742-1.0469-2.5195-1.0469-1.9688 0-3.5625 1.5977-3.5625 3.5664v22.031l-32.66-32.648c-1.3906-1.3906-3.6484-1.3906-5.0391 0-1.3945 1.3906-1.3945 3.6484 0 5.0391l32.898 32.898-22.777 0.003906c-1.9688 0-3.5625 1.5938-3.5625 3.5625 0.007812 1.9648 1.6016 3.5508 3.5625 3.5508z"/>
<text x="0.0" y="117.5" font-size="5.0" font-weight="bold" font-family="Arbeit Regular, Helvetica, Arial-Unicode, Arial, Sans-serif" fill="#000000">Created by Mustofa Bayu</text><text x="0.0" y="122.5" font-size="5.0" font-weight="bold" font-family="Arbeit Regular, Helvetica, Arial-Unicode, Arial, Sans-serif" fill="#000000">from Noun Project</text></svg>